<svg width="960" height="220" viewBox="0 0 960 220" fill="none" xmlns="http://www.w3.org/2000/svg" role="img" aria-labelledby="title desc">
  <title id="title">Speech AI profile banner</title>
  <desc id="desc">A clean speech waveform and interaction pipeline illustration for the profile README.</desc>
  <defs>
    <linearGradient id="bg" x1="0" y1="0" x2="960" y2="220" gradientUnits="userSpaceOnUse"><stop stop-color="#f8fafc"/><stop offset="1" stop-color="#ecfeff"/></linearGradient>
    <linearGradient id="line" x1="110" y1="0" x2="850" y2="0" gradientUnits="userSpaceOnUse"><stop stop-color="#0891b2"/><stop offset="0.55" stop-color="#14b8a6"/><stop offset="1" stop-color="#2563eb"/></linearGradient>
    <filter id="soft" x="-20%" y="-20%" width="140%" height="140%"><feDropShadow dx="0" dy="12" stdDeviation="16" flood-color="#0f172a" flood-opacity="0.10"/></filter>
  </defs>
  <rect x="1" y="1" width="958" height="218" rx="18" fill="url(#bg)" stroke="#dbeafe"/>
  <g opacity="0.55"><circle cx="94" cy="56" r="28" fill="#cffafe"/><circle cx="878" cy="162" r="36" fill="#dbeafe"/><circle cx="818" cy="48" r="16" fill="#ccfbf1"/></g>
  <g filter="url(#soft)"><rect x="54" y="42" width="852" height="136" rx="16" fill="#ffffff" fill-opacity="0.82"/></g>
  <g stroke="url(#line)" stroke-width="5" stroke-linecap="round">
    <path d="M112 111H166" opacity="0.35"/>
    <path d="M184 111C203 42 226 42 244 111C262 180 286 180 304 111C323 42 346 42 364 111C382 180 406 180 424 111C443 42 466 42 484 111C502 180 526 180 544 111C563 42 586 42 604 111C622 180 646 180 664 111C683 42 706 42 724 111C742 180 766 180 784 111"/>
    <path d="M806 111H850" opacity="0.35"/>
  </g>
  <g font-family="Segoe UI, Ubuntu, sans-serif">
    <text x="78" y="78" font-size="15" font-weight="700" fill="#0f766e">listen</text>
    <text x="380" y="35" font-size="15" font-weight="700" fill="#0891b2">turn-taking</text>
    <text x="724" y="78" font-size="15" font-weight="700" fill="#2563eb">respond</text>
    <text x="78" y="162" font-size="15" font-weight="700" fill="#64748b">Speech AI</text>
    <text x="386" y="198" font-size="15" font-weight="700" fill="#64748b">Full-duplex Interaction</text>
    <text x="735" y="162" font-size="15" font-weight="700" fill="#64748b">LLM Agent</text>
  </g>
  <g fill="#0f172a" opacity="0.75"><circle cx="180" cy="111" r="5"/><circle cx="484" cy="111" r="5"/><circle cx="788" cy="111" r="5"/></g>
</svg>